<?xml version="1.0" encoding="utf-8"?>
<!-- Generator: Adobe Illustrator 27.8.0, SVG Export Plug-In . SVG Version: 6.00 Build 0)  -->
<svg version="1.1" id="Layer_1" xmlns="http://www.w3.org/2000/svg" xmlns:xlink="http://www.w3.org/1999/xlink" x="0px" y="0px"
	 viewBox="0 0 512 185.87" style="enable-background:new 0 0 512 185.87;" xml:space="preserve">
<style type="text/css">
	.st0{fill:#FFFFFF;}
</style>
<g>
	<g>
		<path class="st0" d="M237.6,47.01h7.95v14.29h14.66V47.01h7.95v36.12h-7.95v-14.5h-14.66v14.5h-7.95V47.01z"/>
		<path class="st0" d="M277.73,47.01h7.95v28.9h18.01v7.22h-25.96V47.01z"/>
		<path class="st0" d="M309.7,47.01h7.33l16.93,22.24V47.01h7.84v36.12h-6.76l-17.49-22.96v22.96h-7.84V47.01z"/>
		<path class="st0" d="M237.6,98.93h14.09c11.35,0,19.2,7.79,19.2,18.06c0,10.17-7.84,18.06-19.2,18.06H237.6V98.93z M251.69,127.88
			c6.5,0,10.89-4.39,10.89-10.89c0-6.4-4.39-10.89-10.89-10.89h-6.14v21.78H251.69z"/>
		<path class="st0" d="M278.53,98.93h27.25V106h-19.35v7.33h17.03v7.07h-17.03v7.59h19.61v7.07h-27.51V98.93z"/>
		<path class="st0" d="M311.4,129.79l4.7-5.62c3.25,2.68,6.66,4.39,10.79,4.39c3.25,0,5.21-1.29,5.21-3.51
			c0-2.01-1.24-3.04-7.28-4.59c-7.28-1.86-11.97-3.87-11.97-11.15c0-6.55,5.26-10.89,12.64-10.89c5.26,0,9.75,1.65,13.42,4.59
			l-4.13,5.99c-3.2-2.22-6.35-3.56-9.39-3.56s-4.64,1.39-4.64,3.25c0,2.37,1.55,3.15,7.79,4.75c7.33,1.91,11.46,4.54,11.46,10.94
			c0,7.17-5.47,11.2-13.26,11.2C321.26,135.57,315.74,133.66,311.4,129.79z"/>
		<path class="st0" d="M347.8,98.93h7.95v36.12h-7.95V98.93z"/>
		<path class="st0" d="M363.54,116.99c0-10.27,8-18.68,18.94-18.68c6.5,0,10.42,1.75,14.19,4.95l-5,6.04
			c-2.79-2.32-5.26-3.66-9.44-3.66c-5.78,0-10.37,5.11-10.37,11.35c0,6.61,4.54,11.46,10.94,11.46c2.89,0,5.47-0.72,7.48-2.17v-5.16
			h-8v-6.86h15.69v15.69c-3.71,3.15-8.82,5.73-15.43,5.73C371.28,135.67,363.54,127.78,363.54,116.99z"/>
		<path class="st0" d="M406.69,98.93h7.33l16.93,22.24V98.93h7.84v36.12h-6.76l-17.49-22.96v22.96h-7.84V98.93z"/>
		<path class="st0" d="M445.75,129.79l4.7-5.62c3.25,2.68,6.66,4.39,10.79,4.39c3.25,0,5.21-1.29,5.21-3.51
			c0-2.01-1.24-3.04-7.28-4.59c-7.28-1.86-11.97-3.87-11.97-11.15c0-6.55,5.26-10.89,12.64-10.89c5.26,0,9.75,1.65,13.42,4.59
			l-4.13,5.99c-3.2-2.22-6.35-3.56-9.39-3.56s-4.64,1.39-4.64,3.25c0,2.37,1.55,3.15,7.79,4.75c7.33,1.91,11.46,4.54,11.46,10.94
			c0,7.17-5.47,11.2-13.26,11.2C455.61,135.57,450.09,133.66,445.75,129.79z"/>
		<path class="st0" d="M481.65,126.8h8.36v8.26h-8.36V126.8z"/>
	</g>
	<g>
		<g>
			<g>
				<polygon class="st0" points="164.7,14.1 164.93,56.43 164.59,56.43 142.45,14.1 115.94,14.1 160.54,89.8 185.72,89.8 
					185.72,14.1 				"/>
			</g>
			<g>
				<g>
					<rect x="25.62" y="14.09" class="st0" width="65.75" height="26.99"/>
				</g>
				<g>
					<polygon class="st0" points="130.86,57.8 130.86,135.67 105.72,135.67 105.72,81.69 51.55,81.69 51.55,135.67 25.62,135.67 
						25.62,57.8 					"/>
				</g>
				<g>
					<polygon class="st0" points="144.17,149.06 144.17,171.78 65.25,171.78 65.25,95.09 91.55,95.09 91.55,149.06 					"/>
				</g>
			</g>
		</g>
		<g>
			<rect x="159.4" y="108.71" class="st0" width="26.32" height="26.99"/>
		</g>
	</g>
</g>
</svg>
