<?xml version="1.0" encoding="utf-8"?>
<!-- Generator: Adobe Illustrator 27.8.0, SVG Export Plug-In . SVG Version: 6.00 Build 0)  -->
<svg version="1.1" id="Layer_1" xmlns="http://www.w3.org/2000/svg" xmlns:xlink="http://www.w3.org/1999/xlink" x="0px" y="0px"
	 viewBox="0 0 512 185.9" style="enable-background:new 0 0 512 185.9;" xml:space="preserve">
<style type="text/css">
	.st0{fill:#FFFFFF;}
</style>
<g>
	
		<image style="overflow:visible;opacity:0.5;" width="526" height="218" xlink:href="F8550EA8226DA035.png"  transform="matrix(1 0 0 1 -1 -12.13)">
	</image>
	<g>
		<g>
			<g>
				<path class="st0" d="M237.6,47h7.9v14.3h14.7V47h8v36.1h-8V68.6h-14.7v14.5h-7.9L237.6,47L237.6,47z"/>
				<path class="st0" d="M277.7,47h8v28.9h18v7.2h-26L277.7,47L277.7,47z"/>
				<path class="st0" d="M309.7,47h7.3L334,69.2V47h7.8v36.1H335l-17.5-23v23h-7.8L309.7,47L309.7,47z"/>
				<path class="st0" d="M237.6,98.9h14.1c11.4,0,19.2,7.8,19.2,18.1c0,10.2-7.8,18.1-19.2,18.1h-14.1V98.9z M251.7,127.9
					c6.5,0,10.9-4.4,10.9-10.9c0-6.4-4.4-10.9-10.9-10.9h-6.1v21.8H251.7z"/>
				<path class="st0" d="M278.5,98.9h27.2v7.1h-19.4v7.3h17v7.1h-17v7.6H306v7.1h-27.5L278.5,98.9L278.5,98.9z"/>
				<path class="st0" d="M311.4,129.8l4.7-5.6c3.2,2.7,6.7,4.4,10.8,4.4c3.2,0,5.2-1.3,5.2-3.5c0-2-1.2-3-7.3-4.6
					c-7.3-1.9-12-3.9-12-11.2c0-6.6,5.3-10.9,12.6-10.9c5.3,0,9.8,1.7,13.4,4.6l-4.1,6c-3.2-2.2-6.4-3.6-9.4-3.6s-4.6,1.4-4.6,3.2
					c0,2.4,1.5,3.2,7.8,4.8c7.3,1.9,11.5,4.5,11.5,10.9c0,7.2-5.5,11.2-13.3,11.2C321.3,135.6,315.7,133.7,311.4,129.8z"/>
				<path class="st0" d="M347.8,98.9h8v36.1h-8V98.9z"/>
				<path class="st0" d="M363.5,117c0-10.3,8-18.7,18.9-18.7c6.5,0,10.4,1.8,14.2,4.9l-5,6c-2.8-2.3-5.3-3.7-9.4-3.7
					c-5.8,0-10.4,5.1-10.4,11.3c0,6.6,4.5,11.5,10.9,11.5c2.9,0,5.5-0.7,7.5-2.2v-5.2h-8v-6.9H398v15.7c-3.7,3.1-8.8,5.7-15.4,5.7
					C371.3,135.7,363.5,127.8,363.5,117z"/>
				<path class="st0" d="M406.7,98.9h7.3l16.9,22.2V98.9h7.8v36.1H432l-17.5-23v23h-7.8L406.7,98.9L406.7,98.9z"/>
				<path class="st0" d="M445.8,129.8l4.7-5.6c3.2,2.7,6.7,4.4,10.8,4.4c3.2,0,5.2-1.3,5.2-3.5c0-2-1.2-3-7.3-4.6
					c-7.3-1.9-12-3.9-12-11.2c0-6.6,5.3-10.9,12.6-10.9c5.3,0,9.8,1.7,13.4,4.6l-4.1,6c-3.2-2.2-6.4-3.6-9.4-3.6s-4.6,1.4-4.6,3.2
					c0,2.4,1.5,3.2,7.8,4.8c7.3,1.9,11.5,4.5,11.5,10.9c0,7.2-5.5,11.2-13.3,11.2C455.6,135.6,450.1,133.7,445.8,129.8z"/>
				<path class="st0" d="M481.6,126.8h8.4v8.3h-8.4V126.8z"/>
			</g>
			<g>
				<g>
					<g>
						<polygon class="st0" points="164.7,14.1 164.9,56.4 164.6,56.4 142.4,14.1 115.9,14.1 160.5,89.8 185.7,89.8 185.7,14.1 
													"/>
					</g>
					<g>
						<g>
							<rect x="25.6" y="14.1" class="st0" width="65.8" height="27"/>
						</g>
						<g>
							<polygon class="st0" points="130.9,57.8 130.9,135.7 105.7,135.7 105.7,81.7 51.5,81.7 51.5,135.7 25.6,135.7 25.6,57.8 
															"/>
						</g>
						<g>
							<polygon class="st0" points="144.2,149.1 144.2,171.8 65.2,171.8 65.2,95.1 91.6,95.1 91.6,149.1 							"/>
						</g>
					</g>
				</g>
				<g>
					<rect x="159.4" y="108.7" class="st0" width="26.3" height="27"/>
				</g>
			</g>
		</g>
	</g>
</g>
</svg>
